- 
http://www.Speed.Cd 
       
http://www.Speed.Cd      fast  and The Hottest Private Tracker on the net

(((--Submit for invite!!--)))

Please Seed back to make the speed Faster!!!

------------------nfo--------------------------
-








































          
          
              
              
                    
                    
                    
                    

Spy.Kids.4.2011.TS.Xvid-SiC

Poster:
[img]http://img685.imageshack.us/img685/5817/spykids4.jpg[/img]

IMDB Link:
http://www.imdb.com/title/tt1517489/

Description:
A retired spy is called back into action, and to bond with her new step-children,
she invites them along for the adventure to stop the evil Timekeeper from 
taking over the world. 

MediaInfo:
General
Complete name                    : Spy.Kids.4.2011.TS.Xvid-SiC.avi
Format                           : AVI
Format/Info                      : Audio Video Interleave
File size                        : 1 017 MiB
Duration                         : 1h 21mn
Overall bit rate                 : 1 737 Kbps

Video
ID                               : 0
Format                           : MPEG-4 Visual
Format profile                   : Advanced Simple@L5
Format settings, BVOP            : Yes
Format settings, QPel            : No
Format settings, GMC             : No warppoints
Format settings, Matrix          : Default (H.263)
Muxing mode                      : Packed bitstream
Codec ID                         : XVID
Codec ID/Hint                    : XviD
Duration                         : 1h 21mn
Bit rate                         : 1 603 Kbps
Width                            : 720 pixels
Height                           : 384 pixels
Display aspect ratio             : 1.875
Frame rate                       : 25.000 fps
Resolution                       : 8 bits
Colorimetry                      : 4:2:0
Scan type                        : Progressive
Bits/(Pixel*Frame)               : 0.232
Stream size                      : 939 MiB (92%)
Writing library                  : XviD 64

Audio
ID                               : 1
Format                           : MPEG Audio
Format version                   : Version 1
Format profile                   : Layer 3
Mode                             : Joint stereo
Format_Settings_ModeExtension    : MS Stereo
Codec ID                         : 55
Codec ID/Hint                    : MP3
Duration                         : 1h 21mn
Bit rate mode                    : Constant
Bit rate                         : 128 Kbps
Channel(s)                       : 2 channels
Sampling rate                    : 44.1 KHz
Stream size                      : 74.9 MiB (7%)
Alignment                        : Aligned on interleaves
Interleave, duration             : 160 ms (4.00 video frames)
Interleave, preload duration     : 208 ms
Title                            : 2ch
Writing library                  : LAME3.98r
Encoding settings                : -m j -V 4 -q 2 -lowpass 17 -b 128

Screenshots:
[img]http://img829.imageshack.us/img829/9653/spykids42011tsxvidsicav.png[/img]
[img]http://img841.imageshack.us/img841/9653/spykids42011tsxvidsicav.png[/img]
[img]http://img827.imageshack.us/img827/6230/spykidsavspavisnapshot0.png[/img]
[img]http://img38.imageshack.us/img38/6230/spykidsavspavisnapshot0.png[/img]
[img]http://img807.imageshack.us/img807/6230/spykidsavspavisnapshot0.png[/img]
[img]http://img52.imageshack.us/img52/6230/spykidsavspavisnapshot0.png[/img]
[img]http://img856.imageshack.us/img856/6230/spykidsavspavisnapshot0.png[/img]
[img]http://img641.imageshack.us/img641/6230/spykidsavspavisnapshot0.png[/img]

Note : Audio is good but in 2 parts i notice it goes very muffled, scrachy 
       and hard to here once at the start and at 17mins 30secs in just thought
       id let everyone know before you download other than that it is quite nice

Source :Deti.shpionov.4.2011.D.TS.RelizLab Thanks!!!
Audio Source : CHOiCE Thanks!!!

Encoder: Bezauk

Enjoy!

Respects to CaptainHomey, Cyanide, CM8, Rx, THC, ELEKTRI4KA, 
Killerhz, PA, YeFsTe, BoxSlots, MrRep and everyone in the struggle...